HIERARCHY
ROOT Hips
{
	OFFSET 15.585500 22.159004 44.358299
	CHANNELS 6 Xposition Yposition Zposition Zrotation Xrotation Yrotation
	JOINT Chest
	{
		OFFSET -0.128500 0.160400 6.566002
		CHANNELS 6 Xposition Yposition Zposition Zrotation Xrotation Yrotation
		JOINT Chest2
		{
			OFFSET 0.000000 0.000000 3.554802
			CHANNELS 6 Xposition Yposition Zposition Zrotation Xrotation Yrotation
			JOINT Neck
			{
				OFFSET 0.000000 0.000000 8.267998
				CHANNELS 6 Xposition Yposition Zposition Zrotation Xrotation Yrotation
				JOINT Head
				{
					OFFSET 0.000000 0.000002 2.173897
					CHANNELS 6 Xposition Yposition Zposition Zrotation Xrotation Yrotation
					End Site
					{
						OFFSET 0.000000 0.000000 7.718697
					}
				}
			}
			JOINT LeftCollar
			{
				OFFSET 2.057500 0.117599 5.946301
				CHANNELS 6 Xposition Yposition Zposition Zrotation Xrotation Yrotation
				JOINT LeftShoulder
				{
					OFFSET 4.957699 0.000000 0.000000
					CHANNELS 6 Xposition Yposition Zposition Zrotation Xrotation Yrotation
					JOINT LeftElbow
					{
						OFFSET 0.000000 0.000000 -8.465500
						CHANNELS 6 Xposition Yposition Zposition Zrotation Xrotation Yrotation
						JOINT LeftWrist
						{
							OFFSET 0.000000 -0.000002 -14.594898
							CHANNELS 6 Xposition Yposition Zposition Zrotation Xrotation Yrotation
							End Site
							{
								OFFSET 0.000000 0.000000 -2.173901
							}
						}
					}
				}
			}
			JOINT RightCollar
			{
				OFFSET -3.048500 -0.728800 6.604099
				CHANNELS 6 Xposition Yposition Zposition Zrotation Xrotation Yrotation
				JOINT RightShoulder
				{
					OFFSET -3.710299 0.000000 0.000000
					CHANNELS 6 Xposition Yposition Zposition Zrotation Xrotation Yrotation
					JOINT RightElbow
					{
						OFFSET 0.000000 0.000000 -10.450901
						CHANNELS 6 Xposition Yposition Zposition Zrotation Xrotation Yrotation
						JOINT RightWrist
						{
							OFFSET 0.000000 0.000000 -12.539200
							CHANNELS 6 Xposition Yposition Zposition Zrotation Xrotation Yrotation
							End Site
							{
								OFFSET 0.000000 -0.000002 -2.173901
							}
						}
					}
				}
			}
		}
	}
	JOINT LeftHip
	{
		OFFSET 2.442599 -0.601400 -2.767502
		CHANNELS 6 Xposition Yposition Zposition Zrotation Xrotation Yrotation
		JOINT LeftKnee
		{
			OFFSET 0.000000 -0.000002 -17.033703
			CHANNELS 6 Xposition Yposition Zposition Zrotation Xrotation Yrotation
			JOINT LeftAnkle
			{
				OFFSET 0.000000 -0.000002 -19.318800
				CHANNELS 6 Xposition Yposition Zposition Zrotation Xrotation Yrotation
				End Site
				{
					OFFSET 0.000000 -8.281900 0.000000
				}
			}
		}
	}
	JOINT RightHip
	{
		OFFSET -3.126200 -0.601400 -2.283501
		CHANNELS 6 Xposition Yposition Zposition Zrotation Xrotation Yrotation
		JOINT RightKnee
		{
			OFFSET 0.000000 -0.000002 -16.919401
			CHANNELS 6 Xposition Yposition Zposition Zrotation Xrotation Yrotation
			JOINT RightAnkle
			{
				OFFSET 0.000000 -0.000002 -18.035900
				CHANNELS 6 Xposition Yposition Zposition Zrotation Xrotation Yrotation
				End Site
				{
					OFFSET 0.000000 -9.230099 0.000000
				}
			}
		}
	}
}
MOTION
Frames: 5
Frame Time: 0.041667
20.556198 39.098507 9.643295 9.306907 -1.873378 -16.979003 -0.128500 0.160398 6.565996 -8.111286 2.021513 8.059008 -0.000002 -0.000007 3.554801 0.894532 -9.321458 -0.241976 -0.000004 0.000003 8.267997 49.956236 12.591680 -3.448563 -0.000004 0.000002 2.173898 2.797967 -0.980832 6.025616 2.057504 0.117601 5.946302 -17.076001 2.330742 3.598675 4.957693 0.000003 -0.000001 4.457277 -13.294571 -139.479621 -0.000007 0.000005 -8.465502 -60.754697 -132.572428 -122.111707 -0.000005 0.000001 -14.594895 -322.065276 -32.869018 -364.049848 -3.048501 -0.728799 6.604103 41.347493 20.325741 21.654717 -3.710297 0.000002 -0.000005 -3.616358 -21.566741 151.314645 0.000006 0.000006 -10.450901 -61.021122 -26.093793 -11.391884 -0.000003 0.000007 -12.539199 478.884725 187.798442 -253.776362 2.442595 -0.601403 -2.767509 131.798363 9.090437 94.981007 -0.000004 -0.000000 -17.033705 -187.604929 44.067438 169.836274 -0.000003 -0.000003 -19.318798 -169.381861 113.498708 428.588688 -3.126198 -0.601400 -2.283508 -132.960984 -34.128819 -106.456005 -0.000002 -0.000003 -16.919399 348.252740 -72.327311 -195.964835 0.000000 -0.000003 -18.035894 191.948246 52.677581 -190.491053
20.539501 39.113098 9.642902 9.288686 -1.920659 -17.067693 -0.128503 0.160400 6.566001 -8.101500 2.063109 8.109521 0.000001 0.000006 3.554809 0.845493 -9.317677 -0.251849 0.000004 0.000003 8.268006 50.138930 12.627329 -3.534508 0.000005 0.000004 2.173896 2.806579 -0.976369 6.017890 2.057507 0.117604 5.946308 -17.199786 2.343542 3.742086 4.957695 0.000003 0.000006 4.521843 -13.221359 -139.590448 -0.000006 0.000004 -8.465503 -60.598968 -132.545422 -121.902962 -0.000002 0.000004 -14.594899 -322.224201 -32.863704 -364.512716 -3.048497 -0.728803 6.604106 41.480155 20.427276 21.383881 -3.710296 -0.000006 -0.000007 -3.732162 -21.583852 151.554822 0.000005 0.000003 -10.450899 -61.042644 -26.126080 -11.448623 0.000002 0.000008 -12.539203 479.003844 187.816296 -253.821496 2.442590 -0.601400 -2.767502 131.768488 9.073853 95.028784 0.000000 -0.000002 -17.033709 -187.774441 44.130221 169.935407 -0.000005 -0.000000 -19.318800 -169.733739 113.469694 428.913777 -3.126199 -0.601406 -2.283504 -132.918282 -34.134902 -106.474480 -0.000003 -0.000006 -16.919399 349.166292 -72.416924 -195.221573 0.000002 -0.000001 -18.035898 192.224350 52.666574 -190.550667
20.525400 39.125999 9.642300 9.266379 -1.961606 -17.142146 -0.128501 0.160400 6.566004 -8.084847 2.099823 8.143254 -0.000002 0.000004 3.554806 0.809442 -9.313440 -0.258929 -0.000002 0.000007 8.267998 50.292906 12.664203 -3.605730 -0.000001 0.000002 2.173903 2.809492 -0.972520 6.022580 2.057503 0.117603 5.946305 -17.331596 2.356603 3.889872 4.957691 0.000007 0.000002 4.598246 -13.158094 -139.705072 -0.000001 0.000005 -8.465504 -60.462843 -132.516544 -121.723451 -0.000005 0.000003 -14.594894 -322.351406 -32.854351 -364.935696 -3.048499 -0.728798 6.604104 41.606999 20.526247 21.121793 -3.710297 0.000002 -0.000008 -3.838676 -21.602143 151.788510 0.000000 0.000005 -10.450895 -61.063715 -26.157403 -11.503113 0.000004 0.000009 -12.539196 479.111652 187.829574 -253.861275 2.442595 -0.601399 -2.767505 131.747915 9.050463 95.064704 0.000000 0.000002 -17.033710 -187.914091 44.185108 170.022711 -0.000003 -0.000001 -19.318798 -170.028653 113.445979 429.184062 -3.126196 -0.601401 -2.283500 -132.876180 -34.135950 -106.490183 -0.000004 -0.000003 -16.919395 350.013044 -72.492308 -194.530194 0.000001 -0.000006 -18.035896 192.478993 52.656657 -190.608737
20.513699 39.136803 9.641602 9.240630 -1.998484 -17.203834 -0.128501 0.160399 6.566001 -8.062692 2.133410 8.163034 -0.000001 0.000006 3.554806 0.785871 -9.308841 -0.263304 -0.000002 0.000004 8.268001 50.418807 12.701389 -3.662131 0.000003 -0.000000 2.173896 2.808126 -0.968709 6.038084 2.057504 0.117604 5.946311 -17.468123 2.368986 4.035292 4.957695 0.000003 0.000004 4.683087 -13.107022 -139.814491 0.000000 0.000001 -8.465504 -60.346893 -132.482639 -121.567586 -0.000002 -0.000009 -14.594893 -322.448832 -32.839550 -365.319880 -3.048500 -0.728799 6.604105 41.724560 20.617865 20.870529 -3.710296 0.000002 0.000001 -3.930954 -21.617784 152.015996 0.000006 0.000006 -10.450897 -61.092914 -26.202407 -11.430725 -0.000003 0.000000 -12.539198 479.208203 187.718993 -253.946324 2.442593 -0.601398 -2.767501 131.735662 9.020793 95.088999 -0.000000 -0.000003 -17.033707 -188.029808 44.232524 170.101121 -0.000004 -0.000003 -19.318806 -170.263939 113.428986 429.397273 -3.126200 -0.601400 -2.283500 -132.833956 -34.134574 -106.503577 -0.000004 -0.000003 -16.919397 350.786659 -72.554784 -193.897364 0.000002 0.000001 -18.035898 192.711055 52.647713 -190.666766
20.504000 39.145805 9.640793 9.212627 -2.033011 -17.254438 -0.128495 0.160399 6.566002 -8.037129 2.165758 8.171539 0.000003 -0.000000 3.554808 0.774004 -9.303783 -0.264901 0.000001 -0.000010 8.267994 50.518330 12.737683 -3.704376 -0.000003 0.000009 2.173896 2.803691 -0.964403 6.062407 2.057503 0.117591 5.946305 -17.606187 2.379979 4.172803 4.957694 -0.000000 0.000006 4.772742 -13.069319 -139.911507 -0.000008 0.000006 -8.465504 -60.249870 -132.441330 -121.429535 0.000003 -0.000002 -14.594896 -322.518746 -32.817864 -365.667428 -3.048498 -0.728813 6.604098 41.830797 20.698769 20.631485 -3.710293 -0.000001 -0.000008 -4.005432 -21.628183 152.237690 0.000007 0.000007 -10.450891 -61.103931 -26.233544 -11.477216 0.000002 0.000006 -12.539201 479.290111 187.725605 -253.979273 2.442593 -0.601401 -2.767500 131.730047 8.985498 95.102229 0.000000 -0.000003 -17.033709 -188.126851 44.273160 170.173098 -0.000002 -0.000002 -19.318800 -170.464801 113.412614 429.574421 -3.126194 -0.601401 -2.283499 -132.792032 -34.132614 -106.515694 -0.000005 0.000001 -16.919397 351.489458 -72.606297 -193.322412 -0.000000 -0.000002 -18.035896 192.921357 52.639653 -190.726599
